<svg xmlns="http://www.w3.org/2000/svg" width="443" height="512" viewBox="0 0 443 512">
  <defs>
    <style>
      .cls-1 {
        fill-rule: evenodd;
      }
    </style>
  </defs>
  <path class="cls-1" d="M76.6,155.476l-0.01-.037a10.007,10.007,0,1,0-9.679,12.6A10.017,10.017,0,0,0,76.6,155.476Zm49.33-100.9c-38.093,0-69.955,32.718-72.536,74.485a10,10,0,0,0,9.372,10.6c0.21,0.014.418,0.02,0.627,0.02a10,10,0,0,0,9.979-9.383C75.3,99.045,98.387,74.57,125.928,74.57A10,10,0,1,0,125.928,54.573Zm285.7-19.415A112.89,112.89,0,0,0,332.188.109C282.715-1,258.486,25.5,242.433,43.019c-8.19,8.94-14.657,16-20.433,16s-12.242-7.062-20.432-16C185.516,25.5,161.3-.978,111.814.11a112.9,112.9,0,0,0-79.44,35.049A115.535,115.535,0,0,0,.1,115.905c0.1,29.882,3.643,55.413,48.681,112.1l0.354,0.447c27.132,34.232,48.877,51.589,64.634,51.589H145.6V305h-1.41a10,10,0,1,0,0,20h1.41v26.032h-1.41a10,10,0,1,0,0,20h1.41v26.032h-1.41a10,10,0,1,0,0,20h1.41v24.96h-1.41a10,10,0,1,0,0,20h1.41v7.168A42.893,42.893,0,0,0,188.465,512h67.071A42.892,42.892,0,0,0,298.4,469.176v-7.168h1.41a10,10,0,1,0,0-20H298.4v-24.96h1.41a10,10,0,1,0,0-20H298.4V371.022h1.41a10,10,0,1,0,0-20H298.4V324.993h1.41a10,10,0,1,0,0-20H298.4v-24.96h31.835c15.756,0,37.5-17.358,64.634-51.589l0.354-.447c45.038-56.68,48.586-82.213,48.681-112.095A115.546,115.546,0,0,0,411.627,35.158ZM278.383,324.993v26.032H165.617V324.993H278.383ZM165.617,305v-24.96H278.383V305H165.617Zm112.766,66.024v26.032H165.617V371.021H278.383Zm0,46.029v24.96H165.617V417.05H278.383Zm0,52.125h0A22.862,22.862,0,0,1,255.536,492H188.465a22.863,22.863,0,0,1-22.848-22.827v-7.168H278.384v7.168ZM379.546,215.567l-0.37.467c-27.534,34.738-43.719,44.006-48.942,44.006H113.768c-5.224,0-21.411-9.269-48.942-44.006l-0.37-.467c-44.2-55.627-44.274-78.044-44.343-99.725C19.948,64.18,61.286,21.23,112.257,20.1q1.325-.03,2.614-0.029c38.546,0,56.26,19.34,71.931,36.448,10.6,11.57,20.609,22.5,35.2,22.5s24.6-10.928,35.2-22.5C273.22,39.031,291.412,19.2,331.743,20.1c50.973,1.129,92.31,44.078,92.145,95.74C423.82,137.523,423.749,159.94,379.546,215.567Z"/>
</svg>
